<svg width="153" height="281" viewBox="0 0 153 281" fill="none" xmlns="http://www.w3.org/2000/svg">
<path d="M2 23.3476C20.3056 12.942 45.5745 2.8823 69.5096 2.03023C87.9153 1.37501 99.0096 11.4584 100.546 23.7867C102.551 39.8723 92.2083 56.428 77.2121 68.2178C75.44 69.611 67.6115 75.4915 63.393 75.2437C61.0993 75.109 66.6159 72.8683 68.6035 72.0501C75.29 69.2977 84.2689 66.4499 91.4843 64.8645C107.185 61.4144 129.987 57.6029 132.942 73.8066C136.739 94.6331 124.233 118.986 106.096 135.124C97.586 142.696 86.216 148.447 73.8706 152.409C60.4692 156.711 75.1511 147.338 77.2121 146.062C90.8374 137.628 111.169 128.849 130.223 133.128C156.803 139.097 151.454 166.325 148.403 180.713C141.619 212.71 125.041 242.569 92.3904 265.583C87.5646 268.984 78.5375 272.577 75.3997 277" stroke="black" stroke-width="3" stroke-linecap="round"/>
<path d="M75.0162 256C75.0162 261.672 74.0022 267.202 74.0022 272.675C74.0022 275.072 71.2317 279.25 74.9035 279.322C81.7793 279.457 88.4628 278.308 95.2963 278.308" stroke="black" stroke-width="3" stroke-linecap="round"/>
</svg>
