<svg width="177" height="56" viewBox="0 0 177 56" fill="none" xmlns="http://www.w3.org/2000/svg">
<path d="M135.248 24.168C134.987 24.168 134.763 24.0747 134.576 23.888C134.389 23.7013 134.296 23.3747 134.296 22.908C134.296 22.4973 134.324 22.012 134.38 21.452C134.455 20.892 134.557 20.3227 134.688 19.744C134.819 19.1467 134.968 18.624 135.136 18.176C134.819 18.6427 134.464 19.128 134.072 19.632C133.68 20.1173 133.353 20.528 133.092 20.864C133.036 20.9387 132.989 20.976 132.952 20.976C132.915 20.976 132.896 20.9293 132.896 20.836C132.896 20.6867 132.943 20.5467 133.036 20.416C133.428 19.8747 133.867 19.2587 134.352 18.568C134.856 17.8773 135.285 17.252 135.64 16.692C135.845 16.6547 136.088 16.5987 136.368 16.524C136.667 16.4493 136.881 16.3467 137.012 16.216C137.105 16.16 137.161 16.132 137.18 16.132C137.236 16.132 137.264 16.1693 137.264 16.244C137.264 16.3 137.236 16.3653 137.18 16.44C137.012 16.6827 136.825 17.0653 136.62 17.588C136.415 18.092 136.219 18.6613 136.032 19.296C135.845 19.912 135.687 20.5187 135.556 21.116C135.444 21.7133 135.388 22.208 135.388 22.6C135.388 22.8987 135.435 23.104 135.528 23.216C135.64 23.328 135.761 23.384 135.892 23.384C136.153 23.384 136.424 23.2627 136.704 23.02C137.003 22.7773 137.292 22.4787 137.572 22.124C137.871 21.7693 138.132 21.424 138.356 21.088C138.58 20.752 138.748 20.4907 138.86 20.304C139.233 19.7067 139.588 19.0627 139.924 18.372C140.279 17.6627 140.577 17.1027 140.82 16.692C141.025 16.6547 141.268 16.5987 141.548 16.524C141.847 16.4493 142.071 16.3467 142.22 16.216C142.276 16.16 142.323 16.132 142.36 16.132C142.416 16.132 142.444 16.1693 142.444 16.244C142.463 16.3 142.444 16.3653 142.388 16.44C142.22 16.6827 142.043 17.056 141.856 17.56C141.669 18.064 141.483 18.624 141.296 19.24C141.128 19.8373 140.988 20.4347 140.876 21.032C140.764 21.6107 140.708 22.1053 140.708 22.516C140.708 23.076 140.913 23.356 141.324 23.356C141.604 23.356 141.912 23.2533 142.248 23.048C142.603 22.8427 142.892 22.628 143.116 22.404C143.751 21.7507 144.283 21.1067 144.712 20.472C145.141 19.8373 145.505 19.1093 145.804 18.288C145.916 18.008 145.991 17.7653 146.028 17.56C146.065 17.336 146.084 17.1307 146.084 16.944C146.084 16.6827 146.037 16.4773 145.944 16.328C145.869 16.16 145.785 16.0667 145.692 16.048C145.599 16.0107 145.552 15.964 145.552 15.908C145.552 15.8707 145.599 15.8333 145.692 15.796C145.785 15.74 145.888 15.7213 146 15.74C146.299 15.8147 146.551 15.9547 146.756 16.16C146.98 16.3467 147.092 16.6267 147.092 17C147.092 17.2987 147.027 17.616 146.896 17.952C146.635 18.6427 146.252 19.3613 145.748 20.108C145.263 20.836 144.712 21.5173 144.096 22.152C143.48 22.7867 142.836 23.3 142.164 23.692C141.921 23.8227 141.669 23.9347 141.408 24.028C141.147 24.1213 140.895 24.168 140.652 24.168C140.353 24.168 140.092 24.0747 139.868 23.888C139.663 23.7013 139.56 23.3747 139.56 22.908C139.56 22.4227 139.607 21.844 139.7 21.172C139.812 20.5 139.952 19.8467 140.12 19.212C139.989 19.4173 139.859 19.6413 139.728 19.884C139.616 20.108 139.485 20.3413 139.336 20.584C138.869 21.256 138.384 21.8907 137.88 22.488C137.395 23.0853 136.975 23.4867 136.62 23.692C136.396 23.8227 136.163 23.9347 135.92 24.028C135.677 24.1213 135.453 24.168 135.248 24.168ZM152.776 13.304C152.515 13.304 152.328 13.22 152.216 13.052C152.141 12.9587 152.104 12.8373 152.104 12.688C152.104 12.3893 152.244 12.1467 152.524 11.96C152.729 11.848 152.916 11.792 153.084 11.792C153.364 11.792 153.56 11.876 153.672 12.044C153.747 12.1373 153.784 12.2587 153.784 12.408C153.784 12.7067 153.635 12.9493 153.336 13.136C153.168 13.248 152.981 13.304 152.776 13.304ZM147.904 24.084C147.717 24.084 147.559 24.0467 147.428 23.972C147.316 23.8973 147.26 23.7573 147.26 23.552C147.26 23.2907 147.325 22.9827 147.456 22.628C147.605 22.2733 147.764 21.9187 147.932 21.564C148.119 21.2093 148.259 20.92 148.352 20.696C148.483 20.4347 148.641 20.0987 148.828 19.688C149.033 19.2587 149.22 18.8573 149.388 18.484C149.575 18.092 149.705 17.8213 149.78 17.672C149.519 17.952 149.201 18.3067 148.828 18.736C148.473 19.1467 148.137 19.548 147.82 19.94C147.503 20.332 147.26 20.64 147.092 20.864C147.036 20.9387 146.989 20.976 146.952 20.976C146.915 20.976 146.896 20.9293 146.896 20.836C146.896 20.6867 146.943 20.5467 147.036 20.416C147.391 19.968 147.783 19.464 148.212 18.904C148.66 18.344 149.061 17.8307 149.416 17.364C149.771 16.8787 149.995 16.5613 150.088 16.412C150.293 16.3747 150.592 16.3187 150.984 16.244C151.395 16.1693 151.675 16.0667 151.824 15.936C151.88 15.88 151.936 15.852 151.992 15.852C152.029 15.852 152.048 15.8893 152.048 15.964C152.067 16.02 152.048 16.0853 151.992 16.16C151.88 16.2907 151.684 16.608 151.404 17.112C151.124 17.616 150.825 18.176 150.508 18.792C150.209 19.3893 149.929 19.9307 149.668 20.416C149.407 20.92 149.183 21.4053 148.996 21.872C148.809 22.3387 148.716 22.6747 148.716 22.88C148.716 23.1413 148.847 23.272 149.108 23.272C149.351 23.272 149.659 23.1227 150.032 22.824C150.424 22.5253 150.816 22.1707 151.208 21.76C151.6 21.3307 151.945 20.9387 152.244 20.584C152.337 20.472 152.449 20.3413 152.58 20.192C152.729 20.024 152.823 19.9213 152.86 19.884C152.897 19.9213 152.916 19.9867 152.916 20.08C152.897 20.2107 152.851 20.3413 152.776 20.472C152.701 20.584 152.627 20.6867 152.552 20.78C152.16 21.2653 151.731 21.7693 151.264 22.292C150.797 22.796 150.284 23.2253 149.724 23.58C149.164 23.916 148.557 24.084 147.904 24.084ZM153.459 24.084C153.272 24.084 153.113 24.0467 152.983 23.972C152.852 23.8973 152.787 23.7573 152.787 23.552C152.787 23.2907 152.852 22.9827 152.983 22.628C153.132 22.2733 153.291 21.9187 153.459 21.564C153.627 21.2093 153.767 20.92 153.879 20.696C153.972 20.528 154.093 20.2667 154.243 19.912C154.411 19.5387 154.579 19.156 154.747 18.764C154.933 18.3533 155.083 18.008 155.195 17.728C155.325 17.448 155.391 17.308 155.391 17.308C155.223 17.4947 154.999 17.756 154.719 18.092C154.457 18.428 154.168 18.7827 153.851 19.156C153.552 19.5107 153.272 19.8467 153.011 20.164C152.768 20.4813 152.591 20.7147 152.479 20.864C152.423 20.9387 152.376 20.976 152.339 20.976C152.301 20.976 152.283 20.9293 152.283 20.836C152.283 20.6867 152.329 20.5467 152.423 20.416C152.647 20.136 152.917 19.8 153.235 19.408C153.552 18.9973 153.869 18.5867 154.187 18.176C154.523 17.7653 154.812 17.4013 155.055 17.084C154.905 17.084 154.709 17.0933 154.467 17.112C154.243 17.1307 154.037 17.1587 153.851 17.196C153.664 17.2147 153.561 17.224 153.543 17.224C153.449 17.224 153.459 17.1493 153.571 17C153.683 16.8507 153.832 16.7013 154.019 16.552C154.205 16.4027 154.345 16.328 154.439 16.328C154.457 16.328 154.607 16.3373 154.887 16.356C155.167 16.356 155.372 16.356 155.503 16.356C155.876 15.852 156.24 15.2733 156.595 14.62C156.968 13.9667 157.332 13.248 157.687 12.464C157.836 12.4453 158.088 12.3427 158.443 12.156C158.816 11.9507 159.105 11.7453 159.311 11.54C159.404 11.4467 159.479 11.4 159.535 11.4C159.647 11.4 159.647 11.4747 159.535 11.624C159.404 11.7733 159.18 12.0907 158.863 12.576C158.545 13.0427 158.191 13.612 157.799 14.284C157.407 14.9373 157.033 15.628 156.679 16.356H158.947C159.152 16.356 159.255 16.384 159.255 16.44C159.255 16.5147 159.115 16.5893 158.835 16.664C158.517 16.7573 158.181 16.8133 157.827 16.832C157.491 16.8507 157.173 16.888 156.875 16.944C156.595 17 156.389 17.1213 156.259 17.308C156.147 17.4387 155.988 17.7187 155.783 18.148C155.577 18.5773 155.353 19.072 155.111 19.632C154.887 20.1733 154.691 20.724 154.523 21.284C154.355 21.8253 154.252 22.2827 154.215 22.656V22.768C154.215 22.9173 154.261 23.0387 154.355 23.132C154.448 23.2253 154.541 23.272 154.635 23.272C154.877 23.272 155.185 23.1227 155.559 22.824C155.951 22.5253 156.352 22.1707 156.763 21.76C157.173 21.3307 157.528 20.9387 157.827 20.584C157.957 20.4347 158.069 20.2947 158.163 20.164C158.275 20.0333 158.34 19.9493 158.359 19.912C158.396 19.9867 158.415 20.0427 158.415 20.08C158.415 20.192 158.377 20.3133 158.303 20.444C158.247 20.5747 158.181 20.6867 158.107 20.78C157.752 21.2467 157.323 21.7413 156.819 22.264C156.315 22.768 155.773 23.1973 155.195 23.552C154.635 23.9067 154.056 24.084 153.459 24.084ZM162.034 24.168C161.754 24.168 161.502 24.112 161.278 24C161.072 23.888 160.97 23.6827 160.97 23.384C160.97 23.216 161.007 23.0293 161.082 22.824C161.25 22.3947 161.474 21.872 161.754 21.256C162.052 20.64 162.351 20.0427 162.65 19.464C162.948 18.8667 163.182 18.3813 163.35 18.008C163.462 17.784 163.518 17.6253 163.518 17.532C163.518 17.364 163.424 17.3267 163.238 17.42C163.051 17.5133 162.846 17.644 162.622 17.812C162.398 17.98 162.23 18.1107 162.118 18.204C161.632 18.652 161.119 19.184 160.578 19.8C160.055 20.3973 159.57 21.032 159.122 21.704C158.692 22.3573 158.356 23.0107 158.114 23.664C158.095 23.776 157.974 23.8693 157.75 23.944C157.526 24.0187 157.32 24.056 157.134 24.056C156.835 24.056 156.723 23.9627 156.797 23.776C157.227 22.8053 157.666 21.732 158.114 20.556C158.58 19.38 159.103 18.176 159.682 16.944C160.111 16.0107 160.587 15.0493 161.11 14.06C161.651 13.0707 162.248 12.128 162.902 11.232C163.555 10.3173 164.274 9.51467 165.058 8.824C165.748 8.22667 166.504 7.74133 167.326 7.368C168.166 6.976 169.071 6.78 170.042 6.78C170.471 6.78 170.844 6.87333 171.162 7.06C171.479 7.228 171.656 7.536 171.694 7.984V8.236C171.694 8.49733 171.666 8.75867 171.61 9.02C171.591 9.09467 171.516 9.132 171.386 9.132C171.33 9.132 171.311 9.12267 171.329 9.104C171.404 8.61867 171.274 8.27333 170.938 8.068C170.62 7.86267 170.21 7.76 169.706 7.76C168.791 7.76 167.951 7.928 167.186 8.264C166.42 8.6 165.711 9.048 165.058 9.608C164.05 10.4853 163.172 11.6053 162.426 12.968C161.679 14.3307 161.035 15.7213 160.494 17.14C160.232 17.8307 159.971 18.5213 159.71 19.212C159.467 19.9027 159.234 20.5467 159.01 21.144C159.85 20.024 160.652 19.0627 161.418 18.26C162.202 17.4573 162.883 16.888 163.462 16.552C163.928 16.2907 164.348 16.16 164.722 16.16C165.076 16.16 165.254 16.3093 165.254 16.608C165.254 16.8693 165.123 17.2053 164.862 17.616C164.731 17.8213 164.526 18.1667 164.246 18.652C163.984 19.1373 163.704 19.6693 163.406 20.248C163.126 20.808 162.883 21.3307 162.678 21.816C162.472 22.3013 162.37 22.656 162.37 22.88C162.37 23.1787 162.5 23.328 162.762 23.328C162.911 23.328 163.079 23.2813 163.266 23.188C163.471 23.0947 163.62 23.0107 163.714 22.936C164.218 22.5627 164.712 22.1053 165.198 21.564C165.683 21.0227 166.094 20.5467 166.43 20.136C166.448 20.1173 166.458 20.1453 166.458 20.22C166.458 20.2947 166.439 20.4067 166.402 20.556C166.383 20.6867 166.327 20.7987 166.234 20.892C166.028 21.172 165.814 21.4427 165.59 21.704C165.384 21.9467 165.179 22.1893 164.974 22.432C164.619 22.8427 164.19 23.2347 163.686 23.608C163.2 23.9813 162.65 24.168 162.034 24.168Z" fill="white"/>
<path d="M20.646 24H16.213V15.289H6.448V24H2.046V3.323H6.448V11.445H16.213V3.323H20.646V24ZM41.4918 24H36.4078L32.3468 16.653H29.1228V24H24.7208V3.323H34.3928C38.7018 3.323 41.3678 6.144 41.3678 9.988C41.3678 13.615 39.0428 15.599 36.8108 16.126L41.4918 24ZM33.7728 12.778C35.5088 12.778 36.8418 11.724 36.8418 9.957C36.8418 8.252 35.5088 7.198 33.7728 7.198H29.1228V12.778H33.7728ZM50.9647 18.172H43.5247V14.824H50.9647V18.172ZM60.8167 24.372C56.2287 24.372 52.8807 21.117 52.8807 16.498C52.8807 11.91 56.2287 8.655 60.8167 8.655C63.8857 8.655 65.7457 9.988 66.7377 11.352L64.1647 13.77C63.4517 12.716 62.3667 12.158 61.0027 12.158C58.6157 12.158 56.9417 13.894 56.9417 16.498C56.9417 19.102 58.6157 20.869 61.0027 20.869C62.3667 20.869 63.4517 20.249 64.1647 19.226L66.7377 21.644C65.7457 23.008 63.8857 24.372 60.8167 24.372ZM73.2484 24H69.3114V3.323H73.2484V24ZM79.1052 7.415C77.8342 7.415 76.7802 6.361 76.7802 5.059C76.7802 3.757 77.8342 2.734 79.1052 2.734C80.4072 2.734 81.4612 3.757 81.4612 5.059C81.4612 6.361 80.4072 7.415 79.1052 7.415ZM81.0892 24H77.1522V9.027H81.0892V24ZM99.067 24H95.099V14.948C95.099 12.871 94.014 12.158 92.34 12.158C90.79 12.158 89.612 13.026 88.93 13.894V24H84.993V9.027H88.93V10.949C89.891 9.833 91.751 8.655 94.169 8.655C97.486 8.655 99.067 10.515 99.067 13.429V24ZM104.898 7.415C103.627 7.415 102.573 6.361 102.573 5.059C102.573 3.757 103.627 2.734 104.898 2.734C106.2 2.734 107.254 3.757 107.254 5.059C107.254 6.361 106.2 7.415 104.898 7.415ZM106.882 24H102.945V9.027H106.882V24ZM117.761 24.372C113.173 24.372 109.825 21.117 109.825 16.498C109.825 11.91 113.173 8.655 117.761 8.655C120.83 8.655 122.69 9.988 123.682 11.352L121.109 13.77C120.396 12.716 119.311 12.158 117.947 12.158C115.56 12.158 113.886 13.894 113.886 16.498C113.886 19.102 115.56 20.869 117.947 20.869C119.311 20.869 120.396 20.249 121.109 19.226L123.682 21.644C122.69 23.008 120.83 24.372 117.761 24.372Z" fill="white"/>
<path d="M12.912 51H1.584V34.992H12.912V37.992H4.992V41.352H12.744V44.352H4.992V48H12.912V51ZM32.9522 51H29.8802V43.68C29.8802 42.6 29.4002 41.832 28.1522 41.832C27.0722 41.832 26.1842 42.552 25.7522 43.176V51H22.6802V43.68C22.6802 42.6 22.2002 41.832 20.9522 41.832C19.8962 41.832 19.0082 42.552 18.5522 43.176V51H15.5042V39.408H18.5522V40.896C19.0562 40.224 20.5682 39.12 22.3442 39.12C24.0482 39.12 25.1522 39.912 25.5602 41.208C26.2322 40.176 27.7682 39.12 29.5442 39.12C31.6802 39.12 32.9522 40.248 32.9522 42.624V51ZM53.4131 51H50.3411V43.68C50.3411 42.6 49.8611 41.832 48.6131 41.832C47.5331 41.832 46.6451 42.552 46.2131 43.176V51H43.1411V43.68C43.1411 42.6 42.6611 41.832 41.4131 41.832C40.3571 41.832 39.4691 42.552 39.0131 43.176V51H35.9651V39.408H39.0131V40.896C39.5171 40.224 41.0291 39.12 42.8051 39.12C44.5091 39.12 45.6131 39.912 46.0211 41.208C46.6931 40.176 48.2291 39.12 50.0051 39.12C52.1411 39.12 53.4131 40.248 53.4131 42.624V51ZM66.4581 51H63.3861V49.776C62.5941 50.736 61.2261 51.288 59.7141 51.288C57.8661 51.288 55.7061 50.04 55.7061 47.448C55.7061 44.712 57.8661 43.704 59.7141 43.704C61.2741 43.704 62.6181 44.208 63.3861 45.12V43.656C63.3861 42.48 62.3781 41.712 60.8421 41.712C59.6181 41.712 58.4661 42.192 57.5061 43.08L56.3061 40.944C57.7221 39.672 59.5461 39.12 61.3701 39.12C64.0341 39.12 66.4581 40.176 66.4581 43.512V51ZM60.9381 49.224C61.9221 49.224 62.8821 48.888 63.3861 48.216V46.776C62.8821 46.104 61.9221 45.744 60.9381 45.744C59.7381 45.744 58.7541 46.392 58.7541 47.496C58.7541 48.6 59.7381 49.224 60.9381 49.224ZM80.3533 51H77.2813V43.992C77.2813 42.384 76.4413 41.832 75.1453 41.832C73.9453 41.832 73.0333 42.504 72.5053 43.176V51H69.4573V39.408H72.5053V40.896C73.2493 40.032 74.6893 39.12 76.5613 39.12C79.1293 39.12 80.3533 40.56 80.3533 42.816V51ZM94.2278 51H91.1798V49.536C90.3878 50.4 88.9958 51.288 87.0998 51.288C84.5558 51.288 83.3558 49.896 83.3558 47.64V39.408H86.4038V46.44C86.4038 48.048 87.2438 48.576 88.5398 48.576C89.7158 48.576 90.6518 47.928 91.1798 47.256V39.408H94.2278V51ZM102.702 51.288C99.1742 51.288 96.5102 48.912 96.5102 45.192C96.5102 41.832 99.0062 39.12 102.51 39.12C105.99 39.12 108.318 41.712 108.318 45.48V46.2H99.7022C99.9182 47.616 101.07 48.792 103.038 48.792C104.022 48.792 105.366 48.384 106.11 47.664L107.478 49.68C106.326 50.736 104.502 51.288 102.702 51.288ZM105.39 44.088C105.294 42.984 104.526 41.616 102.51 41.616C100.614 41.616 99.7982 42.936 99.6782 44.088H105.39ZM113.568 51H110.52V34.992H113.568V51ZM126.234 51H122.826V34.992H134.154V37.992H126.234V41.352H133.986V44.352H126.234V51ZM146.497 51H143.425V49.776C142.633 50.736 141.265 51.288 139.753 51.288C137.905 51.288 135.745 50.04 135.745 47.448C135.745 44.712 137.905 43.704 139.753 43.704C141.313 43.704 142.657 44.208 143.425 45.12V43.656C143.425 42.48 142.417 41.712 140.881 41.712C139.657 41.712 138.505 42.192 137.545 43.08L136.345 40.944C137.761 39.672 139.585 39.12 141.409 39.12C144.073 39.12 146.497 40.176 146.497 43.512V51ZM140.977 49.224C141.961 49.224 142.921 48.888 143.425 48.216V46.776C142.921 46.104 141.961 45.744 140.977 45.744C139.777 45.744 138.793 46.392 138.793 47.496C138.793 48.6 139.777 49.224 140.977 49.224ZM151.008 38.16C150.024 38.16 149.208 37.344 149.208 36.336C149.208 35.328 150.024 34.536 151.008 34.536C152.016 34.536 152.832 35.328 152.832 36.336C152.832 37.344 152.016 38.16 151.008 38.16ZM152.544 51H149.496V39.408H152.544V51ZM159.455 51.288C157.319 51.288 156.191 50.184 156.191 48.096V42.072H154.271V39.408H156.191V36.24H159.239V39.408H161.591V42.072H159.239V47.28C159.239 48.024 159.623 48.576 160.295 48.576C160.751 48.576 161.183 48.408 161.351 48.216L161.999 50.544C161.543 50.952 160.727 51.288 159.455 51.288ZM174.572 51H171.524V43.944C171.524 42.336 170.684 41.832 169.388 41.832C168.188 41.832 167.252 42.504 166.748 43.176V51H163.676V34.992H166.748V40.896C167.492 40.032 168.908 39.12 170.804 39.12C173.348 39.12 174.572 40.512 174.572 42.768V51Z" fill="white"/>
</svg>
