<svg width="64" height="64" viewBox="0 0 64 64" fill="none" xmlns="http://www.w3.org/2000/svg">
<path d="M18.6667 32C24.5333 32 29.3333 27.2 29.3333 21.3333C29.3333 15.4666 24.5333 10.6666 18.6667 10.6666C12.8 10.6666 8 15.4666 8 21.3333C8 27.2 12.8 32 18.6667 32ZM29.3333 53.3333V39.2C26.4 38.1333 22.6667 37.3333 18.6667 37.3333C8.26667 37.3333 0 42.1333 0 48V53.3333H29.3333ZM58.6667 10.6666H40C37.0667 10.6666 34.6667 13.0666 34.6667 16V48C34.6667 50.9333 37.0667 53.3333 40 53.3333H58.6667C61.6 53.3333 64 50.9333 64 48V16C64 13.0666 61.6 10.6666 58.6667 10.6666ZM48 48H42.6667V16H48V48Z" fill="#FF5071"/>
</svg>
