<svg width="64" height="64" viewBox="0 0 64 64" fill="none" xmlns="http://www.w3.org/2000/svg">
<path fill-rule="evenodd" clip-rule="evenodd" d="M11.7654 2C10.2363 2 8.76984 2.60742 7.68863 3.68863C6.60742 4.76984 6 6.23628 6 7.76535V48.1228C6 49.6519 6.60742 51.1183 7.68863 52.1995C8.76984 53.2807 10.2363 53.8882 11.7654 53.8882H29.0614C30.5905 53.8882 32.0569 53.2807 33.1381 52.1995C34.2193 51.1183 34.8268 49.6519 34.8268 48.1228V30.8268H52.1228C53.6519 30.8268 55.1183 30.2193 56.1995 29.1381C57.2807 28.0569 57.8882 26.5905 57.8882 25.0614V7.76535C57.8882 6.23628 57.2807 4.76984 56.1995 3.68863C55.1183 2.60742 53.6519 2 52.1228 2H11.7654ZM31.9441 27.9441V7.76535H11.7654V27.9441H31.9441Z" fill="#40BB15"/>
</svg>
